# xmcd
#
# Track frame offsets: 
#        150
#        11014
#        26727
#        41325
#        54711
#        71517
#        90281
#        96373
#        112622
#        132417
#        146026
#        163591
#        187711
#        200226
#        215632
#        234688
#        254190
#        277481
#        285395
#
# Disc length: 4000 seconds
#
# Revision: 0
# Processed by: cddbd v1.5.2PL0 Copyright (c) Steve Scherf et al.
# Submitted via: ExactAudioCopy v0.95b4
#
DISCID=210f9e13
DTITLE=Brian Burns - Border Radio
DYEAR=2006
DGENRE=Country
TTITLE0=Del Rio
TTITLE1=Border Blues
TTITLE2=The Prettiest Girls In Texas
TTITLE3=Never Goin Back To Mexico
TTITLE4=Cryin On The Shoulder Of The Road
TTITLE5=Bicycling In A Border Town
TTITLE6=Midnight In Manzanillo
TTITLE7=Dark Spanish Eyes
TTITLE8=Stealin
TTITLE9=Rose Of The San Joaquin
TTITLE10=Rainin In Juarez
TTITLE11=Down the Rio Grande
TTITLE12=The Pink Flamingp
TTITLE13=Lately I've Let Things Slide
TTITLE14=Border Radio
TTITLE15=He Never Came Back From Mexico
TTITLE16=Sagebrush Symphony
TTITLE17=Untitiled
TTITLE18=Untitled
EXTD=
EXTT0=
EXTT1=
EXTT2=
EXTT3=
EXTT4=
EXTT5=
EXTT6=
EXTT7=
EXTT8=
EXTT9=
EXTT10=
EXTT11=
EXTT12=
EXTT13=
EXTT14=
EXTT15=
EXTT16=
EXTT17=
EXTT18=
PLAYORDER=
